<svg xmlns="http://www.w3.org/2000/svg" width="30" height="30" viewBox="0 0 30 30"><g><g><path fill="#95e1d3" d="M30 23.999c0 .65-.419 1.2-1 1.407v1.683a1.496 1.496 0 1 1-1.908 1.909h-1.684c-.207.58-.756 1-1.408 1-.652 0-1.202-.42-1.408-1h-1.684c-.207.58-.756 1-1.408 1-.652 0-1.202-.42-1.408-1h-1.684c-.207.58-.756 1-1.408 1-.652 0-1.202-.42-1.408-1h-1.684c-.206.58-.756 1-1.408 1-.652 0-1.202-.42-1.408-1H7.408c-.207.58-.756 1-1.408 1-.652 0-1.202-.42-1.408-1H2.908c-.207.58-.756 1-1.408 1a1.496 1.496 0 1 1-.5-2.91v-1.682C.419 25.2 0 24.65 0 24c0-.654.419-1.202 1-1.41v-1.682c-.581-.208-1-.757-1-1.409 0-.651.419-1.201 1-1.408v-1.684c-.581-.206-1-.755-1-1.407s.419-1.202 1-1.41v-1.683c-.581-.206-1-.755-1-1.408 0-.652.419-1.202 1-1.407V7.406C.419 7.2 0 6.65 0 5.998c0-.652.419-1.202 1-1.408V2.905C.419 2.7 0 2.15 0 1.498c0-.829.672-1.5 1.5-1.5.652 0 1.201.418 1.408 1h1.684c.206-.582.756-1 1.408-1 .652 0 1.201.418 1.408 1h1.684c.206-.582.756-1 1.408-1 .652 0 1.202.418 1.408 1h1.684c.206-.582.756-1 1.408-1 .652 0 1.201.418 1.408 1h1.684c.206-.582.756-1 1.408-1 .652 0 1.201.418 1.408 1h1.684c.206-.582.756-1 1.408-1 .652 0 1.201.418 1.408 1h1.684c.206-.582.756-1 1.408-1 .828 0 1.5.671 1.5 1.5 0 .652-.419 1.202-1 1.407V4.59c.581.206 1 .756 1 1.408 0 .652-.419 1.201-1 1.408v1.685c.581.205 1 .755 1 1.407 0 .653-.419 1.202-1 1.408v1.683c.581.208 1 .758 1 1.41 0 .652-.419 1.201-1 1.407v1.684c.581.207 1 .757 1 1.408 0 .652-.419 1.2-1 1.409v1.683c.581.207 1 .755 1 1.409zM26 3.997H4v22.001h22zm-13 16l7-8.498 4.5 7v6h-19l6-6zm-3-6.999a3 3 0 1 1 0-6 3 3 0 0 1 0 6z"/></g></g></svg>