<svg xmlns="http://www.w3.org/2000/svg" width="28" height="32" viewBox="0 0 28 32"><g><g><path fill="#95e1d3" d="M26.5 16.497h-3a1.5 1.5 0 0 1-1.5-1.5v-6A1.5 1.5 0 0 1 23.5 7.5h3A1.5 1.5 0 0 1 28 8.998v6a1.5 1.5 0 0 1-1.5 1.5zm-3-15a1.5 1.5 0 0 1 3 0v4.5h-3zm-8 23h-3a1.5 1.5 0 0 1-1.5-1.499v-6a1.5 1.5 0 0 1 1.5-1.5h3a1.5 1.5 0 0 1 1.5 1.5v6a1.5 1.5 0 0 1-1.5 1.5zm-3-23a1.5 1.5 0 0 1 3 0v12.501h-3zm-8 19h-3a1.5 1.5 0 0 1-1.5-1.5v-6a1.5 1.5 0 0 1 1.5-1.499h3a1.5 1.5 0 0 1 1.5 1.5v6a1.5 1.5 0 0 1-1.5 1.5zm-3-19a1.5 1.5 0 0 1 3 0V10h-3zm3 29a1.5 1.5 0 1 1-3 0v-8.499h3zm11 0a1.5 1.5 0 1 1-3 0v-4.5h3zm11 0a1.5 1.5 0 1 1-3 0V18h3z"/></g></g></svg>