<svg xmlns="http://www.w3.org/2000/svg" width="16" height="15" viewBox="0 0 16 15"><g><g><path fill="#95e1d3" d="M8.416 12.358c-.573 0-1.134-.165-1.676-.243-2.191 2.77-5.647 2.225-5.647 2.225 2.44-1.155 2.391-3.069 1.957-3.324C1.134 9.89-.018 8.176-.018 6.256c0-3.391 3.727-6.14 8.434-6.14 4.708 0 7.577 2.749 7.577 6.14 0 3.391-2.87 6.102-7.577 6.102zM4.242 4.875a1.5 1.5 0 1 0 0 3 1.5 1.5 0 0 0 0-3zm3.75 0a1.5 1.5 0 1 0 0 3 1.5 1.5 0 0 0 0-3zm3.75 0a1.5 1.5 0 1 0 0 3 1.5 1.5 0 0 0 0-3z"/></g></g></svg>