<svg xmlns="http://www.w3.org/2000/svg" width="16" height="16" viewBox="0 0 16 16"><g><g><path fill="#95e1d3" d="M16 8.014a8.025 8.025 0 0 1-.629 3.115 7.955 7.955 0 0 1-1.714 2.543 8.051 8.051 0 0 1-2.543 1.714 7.985 7.985 0 0 1-3.114.63 7.968 7.968 0 0 1-4.474-1.368 8.056 8.056 0 0 1-2.16-2.16A7.955 7.955 0 0 1 0 8.015 7.993 7.993 0 0 1 4.886.644 7.948 7.948 0 0 1 8 .014a8.003 8.003 0 0 1 3.114.63 7.96 7.96 0 0 1 2.543 1.714A8.015 8.015 0 0 1 15.371 4.9a7.974 7.974 0 0 1 .63 3.114zm-2.723-4.339c-.013.018-1.109 1.603-3.807 2.704a21.207 21.207 0 0 1 .601 1.344c2.348-.295 4.66.202 4.76.224a6.801 6.801 0 0 0-1.554-4.272zM8 1.182c-.555 0-1.094.068-1.61.193.103.135 1.386 1.84 2.554 3.986 2.579-.966 3.552-2.447 3.569-2.473A6.804 6.804 0 0 0 8 1.182zm-1.658.205a.217.217 0 0 0 .02-.005l.002-.001c-.008.002-.015.003-.022.006zm-5.028 5.22c.18.003 3.027.037 6.308-.835a41.142 41.142 0 0 0-2.537-3.936 6.842 6.842 0 0 0-3.771 4.77zm1.604 5.974c0-.002-.002-.003-.002-.003s1.87-3.318 5.557-4.51c.09-.029.179-.056.269-.082a22.17 22.17 0 0 0-.554-1.16c-3.518 1.052-6.894.975-7.015.972-.002.072-.005.144-.005.216 0 1.756.662 3.356 1.75 4.567zm7.75 1.726c-.102-.598-.499-2.69-1.46-5.188l-.045.014C5.11 10.544 3.8 13.401 3.8 13.401s-.063-.047-.153-.12A6.803 6.803 0 0 0 8 14.847c.946 0 1.848-.192 2.668-.54zM14.745 9.1c-.141-.047-2.052-.651-4.258-.298.896 2.462 1.26 4.467 1.33 4.88A6.836 6.836 0 0 0 14.746 9.1z"/></g></g></svg>