<svg xmlns="http://www.w3.org/2000/svg" width="30" height="30" viewBox="0 0 30 30"><g><g><path fill="#fff" d="M30 24c0 .652-.419 1.201-1 1.408v1.683A1.496 1.496 0 1 1 27.092 29h-1.684c-.207.58-.756 1-1.408 1a1.495 1.495 0 0 1-1.408-1h-1.684c-.207.58-.756 1-1.408 1a1.495 1.495 0 0 1-1.408-1h-1.684c-.206.58-.756 1-1.408 1a1.495 1.495 0 0 1-1.408-1h-1.684c-.207.58-.756 1-1.408 1a1.495 1.495 0 0 1-1.408-1H7.408c-.206.58-.756 1-1.408 1a1.495 1.495 0 0 1-1.408-1H2.908A1.495 1.495 0 0 1 0 28.5c0-.652.419-1.202 1-1.409v-1.683c-.581-.207-1-.756-1-1.409 0-.652.419-1.201 1-1.407v-1.684C.419 20.7 0 20.15 0 19.5c0-.652.419-1.202 1-1.409v-1.683c-.581-.207-1-.756-1-1.408 0-.653.419-1.202 1-1.409v-1.684c-.581-.206-1-.755-1-1.407s.419-1.202 1-1.408V7.408C.419 7.2 0 6.652 0 5.999c0-.652.419-1.201 1-1.407V2.908A1.496 1.496 0 1 1 2.908.999h1.684C4.798.42 5.348 0 6 0c.652 0 1.202.42 1.408 1h1.684c.206-.58.756-1 1.408-1 .652 0 1.201.42 1.408 1h1.684c.206-.58.756-1 1.408-1 .652 0 1.202.42 1.408 1h1.684c.206-.58.756-1 1.408-1 .652 0 1.201.42 1.408 1h1.684c.206-.58.756-1 1.408-1 .652 0 1.201.42 1.408 1h1.684A1.495 1.495 0 0 1 30 1.5c0 .652-.419 1.202-1 1.409v1.684c.581.206 1 .755 1 1.407 0 .653-.419 1.202-1 1.409v1.684c.581.206 1 .756 1 1.408 0 .652-.419 1.201-1 1.407v1.684c.581.207 1 .756 1 1.409 0 .652-.419 1.201-1 1.408v1.683c.581.207 1 .757 1 1.409 0 .651-.419 1.201-1 1.408v1.684c.581.206 1 .755 1 1.407zM26 4H4v22h22zM13 20l7-8.5 4.5 7v6h-19l6-6zm-3-7a3 3 0 1 1 0-6 3 3 0 0 1 0 6z"/></g></g></svg>