<svg xmlns="http://www.w3.org/2000/svg" width="16" height="16" viewBox="0 0 16 16"><g><g><path fill="#95e1d3" d="M14 16.015H2a2 2 0 0 1-2-2v-12a2 2 0 0 1 2-2h12a2 2 0 0 1 2 2v12a2 2 0 0 1-2 2zm-6-11.1c-1.247 0-2.32.738-2.811 1.8h-.003l-.014.034c-.03.065-.055.133-.08.201-.012.032-.025.064-.036.097-.023.07-.042.141-.06.213-.008.033-.018.066-.025.1a3.113 3.113 0 0 0-.038.23l-.015.093a3.1 3.1 0 1 0 6.163 0c-.003-.031-.01-.062-.014-.093a3.176 3.176 0 0 0-.038-.23c-.007-.034-.017-.067-.026-.1a3.17 3.17 0 0 0-.06-.213c-.01-.033-.023-.065-.035-.097a2.975 2.975 0 0 0-.08-.2l-.014-.035h-.003A3.098 3.098 0 0 0 8 4.915zm6.2-2.3a.8.8 0 0 0-.8-.8h-1.6a.8.8 0 0 0-.8.8v1.6a.8.8 0 0 0 .8.8h1.6a.8.8 0 0 0 .8-.8zm0 4.1h-1.475a4.9 4.9 0 1 1-9.45 0H1.8v6.7a.8.8 0 0 0 .8.8h10.8a.8.8 0 0 0 .8-.8z"/></g></g></svg>