<svg xmlns="http://www.w3.org/2000/svg" width="26" height="26" viewBox="0 0 26 26"><g><g><path fill="#f38181" d="M22.7 25.8H3.5a3.2 3.2 0 0 1-3.2-3.2V3.4A3.2 3.2 0 0 1 3.5.2h19.2a3.2 3.2 0 0 1 3.2 3.2v19.2a3.2 3.2 0 0 1-3.2 3.2zM13.1 8.04a4.957 4.957 0 0 0-4.498 2.88h-.005l-.022.054a4.908 4.908 0 0 0-.128.322c-.02.052-.04.103-.057.155a4.998 4.998 0 0 0-.095.34c-.014.054-.03.106-.042.16a4.99 4.99 0 0 0-.061.368c-.007.05-.017.099-.023.15a4.96 4.96 0 1 0 9.861 0c-.005-.051-.015-.1-.022-.15a4.985 4.985 0 0 0-.061-.368c-.012-.054-.028-.106-.042-.16a5.004 5.004 0 0 0-.095-.34c-.017-.052-.038-.103-.057-.155a4.916 4.916 0 0 0-.128-.322l-.022-.055h-.005A4.957 4.957 0 0 0 13.1 8.04zm9.92-3.68a1.28 1.28 0 0 0-1.28-1.28h-2.56a1.28 1.28 0 0 0-1.28 1.28v2.56c0 .707.573 1.28 1.28 1.28h2.56a1.28 1.28 0 0 0 1.28-1.28zm0 6.56h-2.36a7.84 7.84 0 0 1-7.56 9.92 7.84 7.84 0 0 1-7.56-9.92H3.18v10.72c0 .707.573 1.28 1.28 1.28h17.28a1.28 1.28 0 0 0 1.28-1.28z"/></g></g></svg>